<?xml version="1.0" standalone="no"?>
<!DOCTYPE svg PUBLIC "-//W3C//DTD SVG 20010904//EN"
 "http://www.w3.org/TR/2001/REC-SVG-20010904/DTD/svg10.dtd">
<svg version="1.0" xmlns="http://www.w3.org/2000/svg"
 width="1536.000000pt" height="1024.000000pt" viewBox="0 0 1536.000000 1024.000000"
 preserveAspectRatio="xMidYMid meet">
<metadata>
Created by potrace 1.16, written by Peter Selinger 2001-2019
</metadata>
<g transform="translate(0.000000,1024.000000) scale(0.100000,-0.100000)"
fill="#0B0C0E" stroke="none">
<path d="M6335 9579 c-134 -19 -311 -95 -423 -181 -126 -98 -252 -262 -303
-398 -55 -144 -61 -205 -66 -657 -3 -233 -6 -424 -7 -425 0 -1 -332 -5 -736
-8 l-735 -5 -95 -33 c-156 -54 -273 -134 -377 -256 -73 -85 -128 -200 -159
-332 -14 -62 -16 -353 -16 -3015 1 -2936 1 -2946 21 -3028 44 -177 150 -349
287 -465 256 -218 579 -290 912 -205 71 18 232 91 347 156 28 16 102 57 165
90 112 59 415 222 845 453 116 62 271 145 345 185 74 40 187 101 250 135 63
35 198 108 300 162 102 55 277 151 390 213 337 185 321 178 414 173 l81 -5
205 -113 c113 -62 264 -145 335 -185 72 -40 270 -148 440 -240 171 -92 382
-207 470 -255 225 -123 373 -203 575 -310 96 -51 222 -119 280 -150 215 -118
518 -271 576 -290 181 -63 393 -70 590 -20 100 26 259 104 348 171 150 115
274 300 323 487 l26 97 0 2945 0 2945 -21 86 c-37 151 -102 268 -207 374 -95
95 -196 154 -350 206 l-70 24 -735 5 -735 5 -6 440 c-5 398 -7 447 -26 515
-83 313 -290 546 -586 660 -155 60 -147 60 -1542 59 -698 -1 -1297 -5 -1330
-10z m2561 -747 c60 -27 136 -101 161 -157 16 -36 18 -79 21 -388 2 -257 0
-352 -9 -363 -10 -12 -210 -14 -1394 -14 l-1383 0 -7 186 c-4 102 -5 263 -3
357 4 150 7 178 27 222 42 95 131 163 229 175 31 4 563 6 1182 6 l1125 -1 51
-23z m2100 -1647 c69 -20 125 -65 160 -127 l29 -53 3 -555 c2 -390 0 -566 -8
-593 -46 -157 -423 -332 -1048 -487 -442 -109 -1104 -202 -1522 -212 l-115 -3
-5 245 c-5 236 -6 246 -29 287 -27 48 -79 86 -137 102 -26 7 -240 11 -646
11 -583 0 -609 -1 -661 -20 -29 -11 -67 -35 -85 -52 -58 -61 -62 -82 -62 -348 l0
-240 -32 0 c-42 1 -240 16 -393 30 -735 68 -1463 229 -1900 420 -157 69 -233
112 -294 166 -84 76 -82 58 -79 691 l3 548 27 51 c34 64 98 120 158 139 70 21
6563 22 6636 0z m-6541 -2290 c155 -62 396 -137 600 -189 425 -106 1142 -210
1605 -231 69 -3 144 -8 168 -11 l42 -5 0 -157 c0 -144 2 -161 24 -207 28 -60
46 -77 110 -106 49 -21 56 -21 680 -21 692 0 673 -1 739 60 57 53 62 73 67
262 l5 175 105 7 c316 21 448 31 565 43 805 86 1385 220 1885 438 58 25 112
47 120 49 13 3 14 -218 11 -1787 -3 -1772 -3 -1790 -23 -1838 -39 -90 -135
-149 -243 -148 -35 0 -76 3 -92 7 -41 10 -143 63 -353 182 -102 57 -225 127
-275 155 -49 28 -117 67 -150 87 -33 20 -96 56 -140 80 -44 24 -111 62 -150 85
-38 23 -164 95 -280 160 -179 102 -592 337 -705 402 -54 31 -672 382 -787 447
-132 74 -202 96 -306 96 -108 0 -178 -26 -354 -128 -76 -43 -338 -193 -583 -332
-245 -139 -485 -276 -535 -305 -49 -29 -160 -92 -245 -140 -198 -112 -381 -216
-700 -397 -140 -80 -286 -162 -325 -183 -38 -22 -127 -71 -196 -111 -155 -88
-199 -104 -292 -104 -115 1 -205 54 -245 147 -20 48 -20 65 -22 1823 -2 976 -2
1783 -1 1792 1 16 7 15 59 -8 31 -14 129 -54 217 -89z"/>
</g>
</svg>
